<?xml version="1.0" encoding="UTF-8" standalone="no"?>
<!-- Created with Inkscape (http://www.inkscape.org/) -->

<svg
   xmlns:dc="http://purl.org/dc/elements/1.1/"
   xmlns:cc="http://creativecommons.org/ns#"
   xmlns:rdf="http://www.w3.org/1999/02/22-rdf-syntax-ns#"
   xmlns:svg="http://www.w3.org/2000/svg"
   xmlns="http://www.w3.org/2000/svg"
   xmlns:sodipodi="http://sodipodi.sourceforge.net/DTD/sodipodi-0.dtd"
   xmlns:inkscape="http://www.inkscape.org/namespaces/inkscape"
   version="1.1"
   id="svg5396"
   xml:space="preserve"
   width="967.56"
   height="967.56"
   viewBox="0 0 967.56 967.56"
   sodipodi:docname="logo idea update-Sarah-Background.svg"
   inkscape:version="0.92.4 (5da689c313, 2019-01-14)"
   inkscape:export-filename="C:\Users\Master0r0\Pictures\website\logo idea update-Sarah-Background.png"
   inkscape:export-xdpi="96"
   inkscape:export-ydpi="96"><metadata
     id="metadata5402"><rdf:RDF><cc:Work
         rdf:about=""><dc:format>image/svg+xml</dc:format><dc:type
           rdf:resource="http://purl.org/dc/dcmitype/StillImage" /><dc:title /></cc:Work></rdf:RDF></metadata><defs
     id="defs5400" /><sodipodi:namedview
     pagecolor="#ffffff"
     bordercolor="#666666"
     borderopacity="1"
     objecttolerance="10"
     gridtolerance="10"
     guidetolerance="10"
     inkscape:pageopacity="0"
     inkscape:pageshadow="2"
     inkscape:window-width="1854"
     inkscape:window-height="1057"
     id="namedview5398"
     showgrid="false"
     inkscape:zoom="0.64896319"
     inkscape:cx="479.90101"
     inkscape:cy="435.39404"
     inkscape:window-x="58"
     inkscape:window-y="-8"
     inkscape:window-maximized="1"
     inkscape:current-layer="layer2" /><g
     inkscape:groupmode="layer"
     id="layer2"
     inkscape:label="Background"
     style="display:inline"><rect
       style="fill:#ffffff;fill-opacity:1;stroke:none;stroke-width:5;stroke-miterlimit:4;stroke-dasharray:none;stroke-opacity:1"
       id="rect2776"
       width="972.32019"
       height="969.23834"
       x="-1.5409194"
       y="-0.13740954" /></g><g
     id="g5404"
     inkscape:groupmode="layer"
     inkscape:label="logo idea"
     transform="matrix(1.3333333,0,0,-1.3333333,0,967.56)"
     style="display:inline"><g
   id="g5406"
   transform="translate(134.8711,694.1216)"><path
     d="M 0,0 185.012,-295.162"
     style="fill:none;stroke:#000000;stroke-width:4;stroke-linecap:butt;stroke-linejoin:miter;stroke-miterlimit:10;stroke-dasharray:none;stroke-opacity:1"
     id="path5408"
     inkscape:connector-curvature="0" /></g><g
   id="g5410"
   transform="translate(134.8711,694.1216)"><path
     d="M 0,0 185.012,-245.969"
     style="fill:none;stroke:#000000;stroke-width:4;stroke-linecap:butt;stroke-linejoin:miter;stroke-miterlimit:10;stroke-dasharray:none;stroke-opacity:1"
     id="path5412"
     inkscape:connector-curvature="0" /></g><g
   id="g5414"
   transform="translate(319.8828,448.1528)"><path
     d="M 0,0 V -49.193"
     style="fill:none;stroke:#000000;stroke-width:4;stroke-linecap:butt;stroke-linejoin:miter;stroke-miterlimit:10;stroke-dasharray:none;stroke-opacity:1"
     id="path5416"
     inkscape:connector-curvature="0" /></g><g
   id="g5438"
   transform="translate(522.6357,473.2964)"><path
     d="M 0,0 -157.134,-54.113"
     style="fill:none;stroke:#000000;stroke-width:4;stroke-linecap:butt;stroke-linejoin:miter;stroke-miterlimit:10;stroke-dasharray:none;stroke-opacity:1"
     id="path5440"
     inkscape:connector-curvature="0" /></g><g
   id="g5442"
   transform="translate(319.8828,398.9595)"><path
     d="M 0,0 -238.235,20.224"
     style="fill:none;stroke:#000000;stroke-width:4;stroke-linecap:butt;stroke-linejoin:miter;stroke-miterlimit:10;stroke-dasharray:none;stroke-opacity:1"
     id="path5444"
     inkscape:connector-curvature="0" /></g><g
   id="g5446"
   transform="translate(81.6475,419.1831)"><path
     d="M 0,0 53.224,274.938"
     style="fill:none;stroke:#000000;stroke-width:4;stroke-linecap:butt;stroke-linejoin:miter;stroke-miterlimit:10;stroke-dasharray:none;stroke-opacity:1"
     id="path5448"
     inkscape:connector-curvature="0" /></g><g
   id="g5450"
   transform="translate(319.8828,398.9595)"><path
     d="M 0,0 45.619,20.224"
     style="fill:none;stroke:#000000;stroke-width:4;stroke-linecap:butt;stroke-linejoin:miter;stroke-miterlimit:10;stroke-dasharray:none;stroke-opacity:1"
     id="path5452"
     inkscape:connector-curvature="0" /></g><g
   id="g5454"
   transform="translate(522.6357,473.2964)"><path
     d="M 0,0 30.414,-54.113"
     style="fill:none;stroke:#000000;stroke-width:4;stroke-linecap:butt;stroke-linejoin:miter;stroke-miterlimit:10;stroke-dasharray:none;stroke-opacity:1"
     id="path5456"
     inkscape:connector-curvature="0" /></g><g
   id="g5458"
   transform="translate(396.4512,366.6968)"><path
     d="M 0,0 156.599,52.486"
     style="fill:none;stroke:#000000;stroke-width:4;stroke-linecap:butt;stroke-linejoin:miter;stroke-miterlimit:10;stroke-dasharray:none;stroke-opacity:1"
     id="path5460"
     inkscape:connector-curvature="0" /></g><g
   id="g5462"
   transform="translate(396.4512,366.6968)"><path
     d="M 0,0 -76.568,32.263"
     style="fill:none;stroke:#000000;stroke-width:4;stroke-linecap:butt;stroke-linejoin:miter;stroke-miterlimit:10;stroke-dasharray:none;stroke-opacity:1"
     id="path5464"
     inkscape:connector-curvature="0" /></g><g
   id="g5466"
   transform="translate(553.0498,419.1831)"><path
     d="M 0,0 105.178,-124.078"
     style="fill:none;stroke:#000000;stroke-width:4;stroke-linecap:butt;stroke-linejoin:miter;stroke-miterlimit:10;stroke-dasharray:none;stroke-opacity:1"
     id="path5468"
     inkscape:connector-curvature="0" /></g><g
   id="g5470"
   transform="translate(396.4512,366.6968)"><path
     d="M 0,0 180.675,-108.478"
     style="fill:none;stroke:#000000;stroke-width:4;stroke-linecap:butt;stroke-linejoin:miter;stroke-miterlimit:10;stroke-dasharray:none;stroke-opacity:1"
     id="path5472"
     inkscape:connector-curvature="0" /></g><g
   id="g5474"
   transform="translate(577.126,258.2187)"><path
     d="M 0,0 81.102,36.887"
     style="fill:none;stroke:#000000;stroke-width:4;stroke-linecap:butt;stroke-linejoin:miter;stroke-miterlimit:10;stroke-dasharray:none;stroke-opacity:1"
     id="path5476"
     inkscape:connector-curvature="0" /></g><g
   id="g5478"
   transform="translate(658.2275,295.1055)"><path
     d="M 0,0 -40.552,-86.363"
     style="fill:none;stroke:#000000;stroke-width:4;stroke-linecap:butt;stroke-linejoin:miter;stroke-miterlimit:10;stroke-dasharray:none;stroke-opacity:1"
     id="path5480"
     inkscape:connector-curvature="0" /></g><g
   id="g5482"
   transform="translate(577.126,258.2187)"><path
     d="M 0,0 40.55,-49.477"
     style="fill:none;stroke:#000000;stroke-width:4;stroke-linecap:butt;stroke-linejoin:miter;stroke-miterlimit:10;stroke-dasharray:none;stroke-opacity:1"
     id="path5484"
     inkscape:connector-curvature="0" /></g><g
   id="g5486"
   transform="translate(617.6758,208.7422)"><path
     d="M 0,0 -306.029,86.363"
     style="fill:none;stroke:#000000;stroke-width:4;stroke-linecap:butt;stroke-linejoin:miter;stroke-miterlimit:10;stroke-dasharray:none;stroke-opacity:1"
     id="path5488"
     inkscape:connector-curvature="0" /></g><g
   id="g5490"
   transform="translate(319.8828,398.9595)"><path
     d="M 0,0 -8.236,-103.854"
     style="fill:none;stroke:#000000;stroke-width:4;stroke-linecap:butt;stroke-linejoin:miter;stroke-miterlimit:10;stroke-dasharray:none;stroke-opacity:1"
     id="path5492"
     inkscape:connector-curvature="0" /></g><g
   id="g5494"
   transform="translate(81.6475,419.1831)"><path
     d="M 0,0 229.999,-124.078"
     style="fill:none;stroke:#000000;stroke-width:4;stroke-linecap:butt;stroke-linejoin:miter;stroke-miterlimit:10;stroke-dasharray:none;stroke-opacity:1"
     id="path5496"
     inkscape:connector-curvature="0" /></g><g
   id="g5498"
   transform="translate(81.6475,419.1831)"><path
     d="M 0,0 276.52,-285.871"
     style="fill:none;stroke:#000000;stroke-width:4;stroke-linecap:butt;stroke-linejoin:miter;stroke-miterlimit:10;stroke-dasharray:none;stroke-opacity:1"
     id="path5500"
     inkscape:connector-curvature="0" /></g><g
   id="g5502"
   transform="translate(464.6611,251.9238)"><path
     d="M 0,0 -106.494,-118.611"
     style="fill:none;stroke:#000000;stroke-width:4;stroke-linecap:butt;stroke-linejoin:miter;stroke-miterlimit:10;stroke-dasharray:none;stroke-opacity:1"
     id="path5504"
     inkscape:connector-curvature="0" /></g><g
   id="g5506"
   transform="translate(358.167,133.3125)"><path
     d="M 0,0 85.902,-12.025"
     style="fill:none;stroke:#000000;stroke-width:4;stroke-linecap:butt;stroke-linejoin:miter;stroke-miterlimit:10;stroke-dasharray:none;stroke-opacity:1"
     id="path5508"
     inkscape:connector-curvature="0" /></g><g
   id="g5510"
   transform="translate(444.0693,121.2871)"><path
     d="M 0,0 30.682,127.789"
     style="fill:none;stroke:#000000;stroke-width:4;stroke-linecap:butt;stroke-linejoin:miter;stroke-miterlimit:10;stroke-dasharray:none;stroke-opacity:1"
     id="path5512"
     inkscape:connector-curvature="0" /></g><g
   id="g5514"
   transform="translate(358.167,133.3125)"><path
     d="M 0,0 -201.754,66.686"
     style="fill:none;stroke:#000000;stroke-width:4;stroke-linecap:butt;stroke-linejoin:miter;stroke-miterlimit:10;stroke-dasharray:none;stroke-opacity:1"
     id="path5516"
     inkscape:connector-curvature="0" /></g><g
   id="g5518"
   transform="translate(156.4131,199.998)"><path
     d="M 0,0 -74.766,219.185"
     style="fill:none;stroke:#000000;stroke-width:4;stroke-linecap:butt;stroke-linejoin:miter;stroke-miterlimit:10;stroke-dasharray:none;stroke-opacity:1"
     id="path5520"
     inkscape:connector-curvature="0" /></g>




<path
   style="fill:none;stroke:#000000;stroke-width:3.75;stroke-linecap:butt;stroke-linejoin:miter;stroke-miterlimit:4;stroke-dasharray:none;stroke-opacity:1"
   d="M 318.34042,716.07566 347.88216,497.36278"
   id="path6069"
   inkscape:connector-curvature="0"
   sodipodi:nodetypes="cc" /><path
   style="fill:none;stroke:#000000;stroke-width:3.75;stroke-linecap:butt;stroke-linejoin:miter;stroke-miterlimit:4;stroke-dasharray:none;stroke-opacity:1"
   d="M 347.88216,497.36278 522.6362,473.2967"
   id="path6071"
   inkscape:connector-curvature="0" /><path
   style="fill:none;stroke:#000000;stroke-width:3.75;stroke-linecap:butt;stroke-linejoin:miter;stroke-miterlimit:4;stroke-dasharray:none;stroke-opacity:1"
   d="M 522.6362,473.2967 318.34042,716.07566 287.54635,544.65301 347.88216,497.36278"
   id="path6073"
   inkscape:connector-curvature="0"
   sodipodi:nodetypes="cccc" /><path
   style="fill:none;stroke:#000000;stroke-width:3.75;stroke-linecap:butt;stroke-linejoin:miter;stroke-miterlimit:4;stroke-dasharray:none;stroke-opacity:1"
   d="m 256.19093,534.44617 31.35542,10.20685"
   id="path6075"
   inkscape:connector-curvature="0" /><path
   style="fill:none;fill-opacity:1;stroke:#000000;stroke-width:3.75;stroke-linecap:butt;stroke-linejoin:miter;stroke-miterlimit:4;stroke-dasharray:none;stroke-opacity:1"
   d="M 522.6357,473.2964 482.96281,396.34005"
   id="path6083"
   inkscape:connector-curvature="0" /><path
   style="fill:#b8b8b8;fill-opacity:1;stroke:#b8b8b8;stroke-width:4.62275839;stroke-miterlimit:4;stroke-dasharray:none;stroke-opacity:1"
   d="M 422.43659,267.80334 386.90566,239.94686 405.45008,136.68129 423.99451,33.415713 441.32782,160.91837 c 9.53333,70.12646 17.17726,129.13138 16.98652,131.12205 -0.30751,3.20925 -4.37314,0.46274 -35.87775,-24.23708 z"
   id="path6668"
   inkscape:connector-curvature="0"
   transform="matrix(0.75000002,0,0,-0.75000002,0,725.67002)" /><path
   style="fill:none;fill-opacity:1;stroke:#000000;stroke-width:3.75;stroke-linecap:butt;stroke-linejoin:miter;stroke-miterlimit:4;stroke-dasharray:none;stroke-opacity:1"
   d="m 319.8832,398.9598 156.26092,-6.02532"
   id="path6682"
   inkscape:connector-curvature="0" /><path
   style="fill:#d3d3d3;fill-opacity:1;stroke:#d2d2d2;stroke-width:2.72398639;stroke-miterlimit:4;stroke-dasharray:none;stroke-opacity:1"
   d="m 536.32517,437.11562 c -51.68764,-2.04305 -94.713,-3.73523 -95.61192,-3.76039 -1.11963,-0.0313 6.07761,-3.47867 22.85155,-10.94544 l 24.48595,-10.8997 101.28796,-34.87855 c 55.70838,-19.1832 101.34825,-34.80426 101.42194,-34.71347 0.22694,0.27959 -48.71463,94.89365 -49.43254,95.5632 -0.80767,0.75327 -9.05016,3.5108 -10.21006,3.41578 -0.44844,-0.0367 -43.10523,-1.73838 -94.79288,-3.78143 z"
   id="path6698"
   inkscape:connector-curvature="0"
   transform="matrix(0.75000002,0,0,-0.75000002,0,725.67002)" /><path
   style="fill:none;fill-opacity:1;stroke:none;stroke-width:7.70459747;stroke-miterlimit:4;stroke-dasharray:none;stroke-opacity:1"
   d="m 816.37451,677.42343 c -10.22643,-11.3953 -41.38738,-50.78302 -41.38738,-52.31401 0,-2.35439 88.17245,-43.59381 93.20627,-43.59381 1.29665,0 1.92636,1.18092 1.58232,2.96737 -1.30788,6.79127 -44.04859,96.12637 -46.80486,97.82984 -0.78132,0.48288 -3.74968,-1.71734 -6.59635,-4.88939 z"
   id="path6700"
   inkscape:connector-curvature="0"
   transform="matrix(0.75000002,0,0,-0.75000002,0,725.67002)" /><path
   style="fill:#b8b8b8;fill-opacity:1;stroke:none;stroke-width:3.85229874;stroke-miterlimit:4;stroke-dasharray:none;stroke-opacity:1"
   d="m 617.92706,628.04823 c -107.8451,-30.44279 -196.78467,-55.5278 -197.6435,-55.74448 -1.54755,-0.39042 -1.51572,-0.97019 3.56581,-64.94844 2.82001,-35.50498 5.25622,-65.14963 5.41379,-65.877 0.23919,-1.10414 8.37754,2.0902 49.28953,19.34638 l 49.00303,20.66889 119.9932,72.09912 119.99319,72.09912 23.47954,28.62856 c 12.91375,15.7457 23.36881,28.72976 23.23348,28.85347 -0.13534,0.1237 -88.48297,-24.68283 -196.32807,-55.12562 z"
   id="path953"
   inkscape:connector-curvature="0"
   transform="matrix(0.75000002,0,0,-0.75000002,0,725.67002)" /><path
   style="fill:#b8b8b8;fill-opacity:1;stroke:none;stroke-width:5.44797277;stroke-miterlimit:4;stroke-dasharray:none;stroke-opacity:1"
   d="m 261.93972,418.57342 c -81.62549,-6.996 -148.58912,-12.94557 -148.80805,-13.22125 -0.28712,-0.36158 65.41715,-341.079525 68.06246,-352.946656 0.27272,-1.223415 236.61084,373.958096 238.23554,378.193606 0.19977,0.52077 -1.7615,0.89001 -4.35838,0.82056 -2.59686,-0.0694 -71.50607,-5.85028 -153.13157,-12.84626 z"
   id="path1508"
   inkscape:connector-curvature="0"
   transform="matrix(0.75000002,0,0,-0.75000002,0,725.67002)" /><path
   style="fill:#b8b8b8;fill-opacity:1;stroke:none;stroke-width:5.44797277;stroke-miterlimit:4;stroke-dasharray:none;stroke-opacity:1"
   d="m 401.47793,430.02882 c -1.27701,-0.46774 -4.07739,-0.80596 -6.22305,-0.7516 -2.14567,0.0544 -7.08828,-0.19202 -10.98358,-0.54751 -3.8953,-0.35548 -10.26943,-0.89977 -14.16473,-1.20951 -8.87116,-0.70541 -23.88711,-1.97237 -37.59101,-3.17171 -16.52517,-1.44624 -20.23466,-1.76255 -26.69507,-2.27626 -3.8953,-0.30975 -9.77911,-0.79585 -13.07514,-1.08023 -3.29602,-0.28439 -8.93467,-0.74108 -12.53033,-1.01487 -3.59567,-0.27379 -8.98916,-0.73351 -11.98555,-1.02161 -12.99466,-1.2494 -27.36082,-2.53285 -38.6806,-3.45567 -3.8953,-0.31755 -9.53396,-0.80293 -12.53034,-1.07862 -7.88852,-0.7258 -18.67703,-1.67587 -25.87476,-2.27861 -3.44412,-0.28841 -9.32793,-0.7924 -13.07513,-1.11999 -3.7472,-0.32758 -9.26467,-0.80797 -12.26106,-1.06752 -2.99638,-0.25955 -8.63503,-0.75507 -12.53033,-1.10112 -3.89531,-0.34607 -9.53396,-0.75747 -12.53034,-0.91422 -2.99639,-0.15674 -6.18345,-0.5362 -7.08237,-0.8432 -0.89891,-0.30701 -5.5467,-0.87336 -10.32841,-1.25856 -4.78171,-0.38519 -8.8865,-0.89284 -9.12177,-1.12811 -0.23527,-0.23526 0.17154,-3.60391 0.90402,-7.48587 0.73247,-3.88198 1.00837,-7.5814 0.61311,-8.22095 -0.39527,-0.63955 -0.14225,-1.16282 0.56226,-1.16282 0.77394,0 1.0777,-1.06308 0.76746,-2.68597 -0.2824,-1.47729 -0.18029,-2.82566 0.22691,-2.99638 1.06792,-0.44775 5.66531,-25.82492 4.90219,-27.05966 -0.35195,-0.56949 -0.0856,-1.03542 0.59196,-1.03542 0.67753,0 1.12388,-1.10321 0.99189,-2.45159 -0.13199,-1.34837 0.0515,-3.18706 0.40782,-4.08598 1.30888,-3.30231 5.27925,-25.2688 4.67624,-25.87181 -0.34251,-0.34251 -0.0818,-1.27451 0.5793,-2.07112 0.66112,-0.79661 0.92344,-2.17439 0.58293,-3.06174 -0.34051,-0.88736 -0.12675,-1.91768 0.47503,-2.28959 0.60178,-0.37192 0.99533,-1.49084 0.87455,-2.48649 -0.12077,-0.99565 0.0813,-2.54574 0.44917,-3.44465 1.15075,-2.81238 4.07194,-19.9285 3.49895,-20.50149 -0.29981,-0.2998 -0.004,-1.19686 0.65693,-1.99348 0.66113,-0.7966 0.92345,-2.17438 0.58294,-3.06173 -0.34051,-0.88736 -0.10749,-1.92958 0.51782,-2.31604 0.62531,-0.38646 0.89508,-1.62747 0.5995,-2.75779 -0.29559,-1.13033 -0.15045,-2.29431 0.32253,-2.58662 0.71989,-0.44492 2.29726,-8.63452 2.83613,-14.72501 0.0795,-0.89892 0.52079,-2.5136 0.98056,-3.58818 0.45977,-1.07458 0.53448,-2.25525 0.166,-2.62373 -0.36847,-0.36847 -0.12903,-1.32171 0.53209,-2.11833 0.66112,-0.7966 0.92344,-2.17438 0.58293,-3.06174 -0.34051,-0.88735 -0.15771,-1.89853 0.40623,-2.24706 0.56393,-0.34854 1.00243,-1.71261 0.97443,-3.03128 -0.028,-1.31867 0.96405,-7.01086 2.20452,-12.64928 1.24048,-5.63843 2.01062,-10.4965 1.71142,-10.79569 -0.2992,-0.2992 -0.003,-1.19577 0.65804,-1.99238 0.66112,-0.7966 0.92344,-2.17438 0.58293,-3.06174 -0.34051,-0.88735 -0.15771,-1.89853 0.40622,-2.24706 0.56394,-0.34854 1.00035,-1.71261 0.9698,-3.03128 -0.0305,-1.31867 0.72037,-5.78102 1.66869,-9.91634 0.94832,-4.1353 1.47538,-7.76758 1.17125,-8.0717 -0.30412,-0.30413 -0.012,-1.20473 0.64908,-2.00134 0.66112,-0.7966 0.92344,-2.17438 0.58293,-3.06174 -0.34051,-0.88735 -0.10748,-1.92957 0.51783,-2.31603 0.62531,-0.38647 0.89508,-1.62747 0.5995,-2.7578 -0.29559,-1.13032 -0.10065,-2.32508 0.4332,-2.65501 0.53384,-0.32994 0.94772,-1.67881 0.91973,-2.99748 -0.028,-1.31867 0.96404,-7.01085 2.20452,-12.64927 1.24048,-5.63844 2.01061,-10.4965 1.71141,-10.7957 -0.2992,-0.2992 -0.003,-1.19577 0.65805,-1.99237 0.66112,-0.7966 0.92344,-2.17439 0.58293,-3.06174 -0.34051,-0.88736 -0.15771,-1.89854 0.40622,-2.24707 0.56393,-0.34853 1.00243,-1.7126 0.97444,-3.03128 -0.028,-1.31867 0.96404,-7.01085 2.20452,-12.64928 1.24047,-5.63843 2.01061,-10.49649 1.71141,-10.79569 -0.2992,-0.2992 -0.003,-1.19577 0.65804,-1.99237 0.66112,-0.79661 0.92344,-2.17439 0.58293,-3.06175 -0.34051,-0.88735 -0.15771,-1.89853 0.40623,-2.24706 0.56393,-0.34853 1.00243,-1.71261 0.97443,-3.03128 -0.028,-1.31867 0.96405,-7.01085 2.20452,-12.649282 1.24048,-5.638431 2.01062,-10.496493 1.71142,-10.795692 -0.2992,-0.299201 -0.003,-1.195767 0.65804,-1.992371 0.66112,-0.796604 0.92344,-2.174388 0.58293,-3.061743 -0.34051,-0.887356 -0.10749,-1.929572 0.51782,-2.316036 0.62531,-0.386464 0.89509,-1.627472 0.5995,-2.757796 -0.29558,-1.130323 -0.16516,-2.285204 0.28983,-2.566402 0.45498,-0.281197 1.46161,-4.219803 2.23695,-8.752455 0.77533,-4.532653 1.72885,-8.438434 2.11892,-8.679514 0.81339,-0.502697 9.17363,12.453912 59.73613,92.578301 20.0432,31.76168 37.0025,58.2406 37.68732,58.84205 0.68482,0.60144 1.37941,1.73976 1.54353,2.52961 0.45586,2.19376 3.64363,6.728 4.73009,6.728 0.53034,0 0.86347,0.36774 0.74026,0.81719 -0.36725,1.33964 3.46129,7.89956 4.61037,7.89956 0.5839,0 0.96081,0.36774 0.8376,0.8172 -0.39887,1.455 3.51049,7.89956 4.79198,7.89956 0.68376,0 0.93082,0.31239 0.549,0.6942 -0.71034,0.71034 3.12391,6.83594 5.18169,8.27828 0.62815,0.44028 0.74097,0.80802 0.25071,0.81719 -0.97725,0.0183 3.36137,6.61275 5.19726,7.89956 0.62815,0.44029 0.78075,0.80802 0.3391,0.8172 -1.0036,0.0208 16.36802,27.50663 18.07699,28.60186 0.68701,0.44028 0.84799,0.80802 0.35773,0.81719 -0.97725,0.0183 3.36137,6.61275 5.19726,7.89956 0.62816,0.44029 0.74097,0.80802 0.25071,0.8172 -0.97725,0.0183 3.36138,6.61275 5.19727,7.89956 0.62815,0.44028 0.74097,0.80802 0.2507,0.8172 -0.97724,0.0183 3.36138,6.61274 5.19727,7.89956 0.62815,0.44028 0.74097,0.80802 0.25071,0.81719 -0.76417,0.0143 2.91504,6.05913 4.65247,7.64385 0.32851,0.29963 1.53255,2.38348 2.67566,4.63077 1.1431,2.24729 2.49148,4.08598 2.99638,4.08598 0.50491,0 0.91802,0.54621 0.91802,1.21379 0,1.41988 9.43022,16.77753 11.68917,19.03649 0.84789,0.84789 1.22805,1.54161 0.8448,1.54161 -0.78956,0 3.7346,6.72568 5.21251,7.74898 0.52951,0.36665 0.82075,0.85697 0.64718,1.0896 -0.46965,0.6295 3.74877,7.50534 4.60463,7.50534 0.4051,0 1.01588,1.11297 1.3573,2.47327 0.34141,1.3603 1.49779,3.45754 2.56971,4.66052 1.07193,1.20298 2.88422,4.01256 4.02733,6.24349 1.1431,2.23093 2.43832,4.05624 2.87826,4.05624 0.43994,0 1.07923,1.11296 1.42064,2.47327 0.34142,1.36029 1.49779,3.45753 2.56972,4.66051 1.07193,1.20299 2.88422,4.01256 4.02732,6.2435 1.14311,2.23092 2.49148,4.05623 2.99639,4.05623 0.5049,0 0.91801,0.52958 0.91801,1.17683 0,1.50227 16.43368,28.24222 17.35693,28.24222 0.37998,0 0.78592,1.14837 0.90209,2.55193 0.20242,2.44578 -0.084,2.54776 -6.88684,2.45159 -3.90393,-0.0551 -8.14287,-0.48304 -9.41987,-0.95077 z"
   id="path1510"
   inkscape:connector-curvature="0"
   transform="matrix(0.75000002,0,0,-0.75000002,0,725.67002)" /><path
   style="fill:#c9c9c9;fill-opacity:1;stroke:none;stroke-width:5.44797277;stroke-miterlimit:4;stroke-dasharray:none;stroke-opacity:1"
   d="m 450.73657,291.69136 c -2.69675,-1.88991 -14.70953,-11.08037 -26.69507,-20.42324 -11.98554,-9.34287 -25.57006,-19.91008 -30.18783,-23.48269 -5.51957,-4.27028 -8.39372,-7.24221 -8.38945,-8.67483 0.004,-1.19855 8.21657,-47.77624 18.25112,-103.50597 15.25825,-84.740989 18.54239,-101.384118 20.06367,-101.677089 1.16975,-0.225273 2.01708,0.550589 2.37389,2.173672 1.02807,4.67651 31.77026,235.143807 33.71551,252.757617 0.43053,3.8984 -0.79797,6.41441 -3.08459,6.31731 -0.62924,-0.0267 -3.3505,-1.59487 -6.04725,-3.48478 z"
   id="path1512"
   inkscape:connector-curvature="0"
   transform="matrix(0.75000002,0,0,-0.75000002,0,725.67002)" /><path
   style="fill:#d9d9d9;fill-opacity:1;stroke:none;stroke-width:5.44797277;stroke-miterlimit:4;stroke-dasharray:none;stroke-opacity:1"
   d="m 809.66001,682.10794 c -1.03476,-0.96572 -12.37413,-4.41618 -16.21198,-4.93313 -1.21723,-0.16397 -3.57853,-0.84888 -5.24733,-1.52205 -1.66881,-0.67316 -3.38492,-1.15041 -3.81359,-1.06058 -0.42866,0.0899 -2.14478,-0.40047 -3.81358,-1.08959 -1.6688,-0.68911 -3.38491,-1.17943 -3.81358,-1.0896 -0.42867,0.0899 -2.16891,-0.40964 -3.86722,-1.10998 -1.6983,-0.70033 -3.50311,-1.01667 -4.01069,-0.70297 -0.50758,0.31369 -1.19649,0.12764 -1.53092,-0.41349 -0.50681,-0.82003 -5.44297,-2.27369 -9.89367,-2.91361 -0.59928,-0.0862 -2.45498,-0.71776 -4.12378,-1.40355 -1.6688,-0.6858 -3.38491,-1.17339 -3.81358,-1.08356 -0.42867,0.0899 -2.19578,-0.41985 -3.9269,-1.13267 -1.73113,-0.71282 -3.40212,-1.04141 -3.71333,-0.7302 -0.31121,0.3112 -1.11348,0.11132 -1.78283,-0.44419 -0.66936,-0.55552 -2.43058,-1.21136 -3.91383,-1.45742 -1.48327,-0.24606 -3.43231,-0.76223 -4.33123,-1.14703 -0.89891,-0.3848 -2.61502,-0.87685 -3.81358,-1.09343 -1.19855,-0.21658 -2.91466,-0.70689 -3.81358,-1.08959 -0.89891,-0.3827 -2.86018,-0.91024 -4.35838,-1.17232 -1.49819,-0.26208 -2.96914,-0.58763 -3.26878,-0.72344 -0.29964,-0.13581 -1.03512,-0.34095 -1.63439,-0.45586 -0.59928,-0.11492 -2.50597,-0.78942 -4.2371,-1.49892 -1.73112,-0.70949 -3.40212,-1.03536 -3.71333,-0.72415 -0.31121,0.3112 -1.11347,0.11132 -1.78282,-0.44419 -0.66936,-0.55552 -2.43058,-1.21136 -3.91384,-1.45742 -1.48326,-0.24607 -3.43231,-0.76223 -4.33122,-1.14703 -0.89892,-0.3848 -2.61503,-0.87685 -3.81358,-1.09343 -1.19856,-0.21658 -2.91467,-0.7069 -3.81359,-1.08959 -0.89891,-0.3827 -2.61502,-0.87302 -3.81358,-1.0896 -1.19855,-0.21658 -2.91466,-0.7069 -3.81358,-1.08959 -0.89891,-0.3827 -2.61502,-0.83828 -3.81358,-1.01241 -1.19855,-0.17413 -2.66951,-0.61249 -3.26878,-0.97414 -1.0219,-0.61669 -7.39352,-2.32065 -9.80635,-2.62251 -0.59928,-0.075 -1.82508,-0.45096 -2.72399,-0.83553 -0.89892,-0.38456 -2.61503,-0.8764 -3.81358,-1.09298 -1.19856,-0.21658 -2.91467,-0.7069 -3.81358,-1.0896 -0.89892,-0.38269 -2.61503,-0.87301 -3.81358,-1.08959 -1.19856,-0.21658 -2.91467,-0.7069 -3.81358,-1.08959 -0.89892,-0.3827 -2.61503,-0.87302 -3.81359,-1.0896 -1.19855,-0.21658 -2.91466,-0.7069 -3.81358,-1.08959 -0.89891,-0.3827 -2.61502,-0.83828 -3.81358,-1.01241 -1.19855,-0.17413 -2.67324,-0.62565 -3.27708,-1.00337 -0.60384,-0.3777 -3.05542,-1.07687 -5.44798,-1.5537 -5.32288,-1.06085 -5.07827,-0.9964 -7.07406,-1.8639 -0.89892,-0.39072 -2.61503,-0.88761 -3.81358,-1.10419 -1.19855,-0.21658 -2.91467,-0.7069 -3.81358,-1.0896 -0.89892,-0.38269 -2.61503,-0.87301 -3.81358,-1.08959 -1.19856,-0.21658 -2.91467,-0.7069 -3.81358,-1.0896 -0.89892,-0.38269 -2.61503,-0.87301 -3.81358,-1.08959 -1.19856,-0.21658 -2.91467,-0.7069 -3.81359,-1.08959 -0.89891,-0.3827 -2.61502,-0.83828 -3.81358,-1.01241 -1.19855,-0.17413 -2.67324,-0.62565 -3.27708,-1.00337 -0.60384,-0.3777 -3.05542,-1.07688 -5.44798,-1.5537 -5.32288,-1.06085 -5.07827,-0.99641 -7.07406,-1.8639 -0.89891,-0.39073 -2.61503,-0.88761 -3.81358,-1.10419 -1.19855,-0.21658 -2.91467,-0.7069 -3.81358,-1.0896 -0.89892,-0.38269 -2.61503,-0.87301 -3.81358,-1.08959 -1.19856,-0.21658 -2.91467,-0.7069 -3.81358,-1.0896 -0.89892,-0.38269 -2.61503,-0.87301 -3.81358,-1.08959 -1.19856,-0.21658 -2.91467,-0.7069 -3.81359,-1.08959 -0.89891,-0.3827 -2.61502,-0.87302 -3.81358,-1.0896 -1.19855,-0.21658 -2.91466,-0.69843 -3.81358,-1.07078 -0.89891,-0.37233 -3.10534,-0.96209 -4.90317,-1.31054 -3.82165,-0.74071 -4.87076,-1.03344 -7.08237,-1.97618 -0.89891,-0.38317 -2.61502,-0.87389 -3.81358,-1.09047 -1.19855,-0.21658 -2.91466,-0.7069 -3.81358,-1.0896 -0.89892,-0.3827 -2.61503,-0.87301 -3.81358,-1.08959 -1.19855,-0.21658 -2.91467,-0.7069 -3.81358,-1.0896 -0.89892,-0.38269 -2.61503,-0.87301 -3.81358,-1.08959 -1.19856,-0.21658 -2.91467,-0.7069 -3.81358,-1.0896 -0.89892,-0.38269 -2.61503,-0.87301 -3.81359,-1.08959 -1.19855,-0.21658 -2.91466,-0.69843 -3.81358,-1.07078 -0.89891,-0.37233 -2.97467,-0.90238 -4.6128,-1.17787 -1.63813,-0.27548 -3.38859,-0.75439 -3.88993,-1.06423 -0.50134,-0.30985 -2.34812,-0.85986 -4.10396,-1.22226 -3.81446,-0.78731 -4.85456,-1.08444 -7.00601,-2.00154 -0.89891,-0.38318 -2.61503,-0.8739 -3.81358,-1.09048 -1.19855,-0.21658 -2.91467,-0.7069 -3.81358,-1.0896 -0.89892,-0.38269 -2.61503,-0.87301 -3.81358,-1.08959 -1.19856,-0.21658 -2.91467,-0.7069 -3.81358,-1.0896 -0.89892,-0.38269 -2.61503,-0.87301 -3.81358,-1.08959 -1.19856,-0.21658 -2.91467,-0.69843 -3.81359,-1.07078 -0.89891,-0.37233 -2.97467,-0.90238 -4.6128,-1.17787 -1.63812,-0.27548 -3.38859,-0.75439 -3.88993,-1.06423 -0.50134,-0.30985 -2.34811,-0.85986 -4.10395,-1.22226 -3.81447,-0.78731 -4.85457,-1.08444 -7.00602,-2.00155 -0.89891,-0.38317 -2.61502,-0.87389 -3.81358,-1.09047 -1.19855,-0.21658 -2.91466,-0.7069 -3.81358,-1.0896 -0.89892,-0.3827 -2.61503,-0.83828 -3.81358,-1.0124 -1.19856,-0.17413 -2.74829,-0.67203 -3.44385,-1.10643 -0.69556,-0.4344 -2.53425,-0.8949 -4.08598,-1.02333 -2.70395,-0.22378 -2.82846,-0.52957 -2.99297,-7.35061 -0.0944,-3.91441 -0.0704,-7.85259 0.0534,-8.75151 0.12378,-0.89891 0.4434,-4.57629 0.71026,-8.17195 0.59361,-7.99813 1.33115,-17.30614 2.11524,-26.69507 0.3253,-3.8953 0.86165,-10.51459 1.19188,-14.70953 0.66757,-8.48012 1.2817,-16.09976 2.15157,-26.69507 1.03908,-12.65634 1.59914,-20.00705 2.15566,-28.29299 0.30053,-4.47453 0.98987,-8.57895 1.53186,-9.12093 0.58751,-0.58752 3.00011,-0.29897 5.97475,0.71459 2.74412,0.93502 4.99683,1.36206 5.006,0.94897 0.009,-0.41308 0.42103,-0.1136 0.91524,0.66552 0.4942,0.77912 1.95764,1.49636 3.2521,1.59386 1.29445,0.0975 2.35355,0.51011 2.35355,0.9169 0,0.77461 5.39709,2.55319 6.80996,2.24417 0.44946,-0.0983 0.8172,0.25843 0.8172,0.79274 0,0.7888 2.45296,1.83634 6.53756,2.79188 0.29964,0.0701 1.58355,0.70572 2.85313,1.41249 1.26957,0.70678 2.61795,0.97542 2.99638,0.59699 0.37844,-0.37843 0.68806,-0.16918 0.68806,0.46501 0,1.08461 5.02893,3.04719 6.80997,2.65765 0.44946,-0.0983 0.81719,0.25842 0.81719,0.79274 0,0.78879 2.45297,1.83634 6.53757,2.79187 0.29964,0.0701 1.58355,0.70572 2.85312,1.4125 1.26958,0.70678 2.61796,0.97542 2.99639,0.59699 0.37843,-0.37844 0.68806,-0.16918 0.68806,0.46501 0,1.08461 5.02892,3.04719 6.80997,2.65764 0.44945,-0.0983 0.81719,0.25843 0.81719,0.79274 0,0.7888 2.45297,1.83634 6.53757,2.79188 0.29964,0.0701 1.58354,0.70572 2.85312,1.4125 1.26958,0.70677 2.61795,0.97542 2.99639,0.59698 0.37843,-0.37843 0.68806,-0.16917 0.68806,0.46502 0,1.08461 5.02892,3.04718 6.80996,2.65764 0.44946,-0.0983 0.8172,0.25843 0.8172,0.79274 0,0.78544 4.1364,2.37115 6.53757,2.50621 0.29963,0.0168 1.89317,0.99077 3.54118,2.16425 1.64801,1.17349 2.99638,1.85987 2.99638,1.52529 0,-0.33458 0.85806,0.12636 1.90679,1.02432 1.04874,0.89795 2.15195,1.52847 2.45159,1.40115 0.29964,-0.12731 1.52543,0.60816 2.72399,1.6344 1.19855,1.02623 2.66951,1.97162 3.26878,2.10086 0.59928,0.12924 1.82507,0.86471 2.72399,1.63439 0.89891,0.76967 2.06989,1.35352 2.60217,1.29743 0.53227,-0.0561 1.26774,0.36678 1.63439,0.93972 0.98724,1.54273 15.37335,10.15171 15.39282,9.21143 0.009,-0.443 0.37692,-0.25599 0.8172,0.41558 0.90116,1.37457 15.51004,10.48633 15.51004,9.67383 0,-0.28731 0.99653,0.33087 2.21451,1.37374 1.21799,1.04287 2.56636,1.8833 2.99639,1.86763 0.43003,-0.0157 1.65582,0.7198 2.72399,1.63439 1.06816,0.91459 2.04879,1.44016 2.17919,1.16792 0.13039,-0.27223 1.35618,0.46325 2.72398,1.63439 1.3678,1.17115 2.5936,1.90663 2.72399,1.6344 0.13039,-0.27224 1.35618,0.46324 2.72398,1.63439 1.36781,1.17115 2.60511,1.8842 2.74956,1.58456 0.14446,-0.29964 1.42861,0.54146 2.85367,1.86911 1.42507,1.32765 3.0071,2.15677 3.51561,1.84249 0.50853,-0.31428 0.92459,-0.0522 0.92459,0.58248 0,0.63464 0.73548,1.15389 1.63439,1.15389 0.89892,0 1.63439,0.45728 1.63439,1.01617 0,0.5589 1.08035,1.35906 2.40077,1.77815 1.32043,0.41908 3.07156,1.43276 3.89141,2.25261 0.81986,0.81985 2.19109,1.49064 3.04721,1.49064 0.8561,0 1.55656,0.45728 1.55656,1.01617 0,0.55889 1.10321,1.36046 2.45159,1.78125 1.34837,0.42079 2.69674,1.10099 2.99638,1.51154 0.94917,1.30053 30.2311,18.57253 31.48676,18.57253 0.66059,0 1.20108,0.37798 1.20108,0.83996 0,0.46196 2.3203,2.05549 5.15623,3.54118 2.83592,1.48567 5.81286,3.31412 6.6154,4.06322 0.80254,0.74909 2.15961,1.36199 3.01573,1.36199 0.8561,0 1.55656,0.45728 1.55656,1.01617 0,0.55889 1.08034,1.35906 2.40077,1.77814 1.32042,0.41909 3.07155,1.43276 3.89141,2.25262 0.81985,0.81985 2.19109,1.49064 3.0472,1.49064 0.85611,0 1.55657,0.45728 1.55657,1.01616 0,0.5589 1.08034,1.35907 2.40076,1.77815 1.32043,0.41909 3.07156,1.43276 3.89141,2.25261 0.81986,0.81986 2.19109,1.49065 3.04721,1.49065 0.8561,0 1.55656,0.45728 1.55656,1.01616 0,0.5589 1.08034,1.35906 2.40077,1.77814 1.32043,0.41909 3.07156,1.43277 3.89141,2.25262 0.81986,0.81986 2.19109,1.49064 3.0472,1.49064 0.85611,0 1.55657,0.45728 1.55657,1.01617 0,0.5589 1.08034,1.35906 2.40077,1.77814 1.32042,0.41909 3.07155,1.43276 3.89141,2.25262 0.81985,0.81985 2.19108,1.49064 3.0472,1.49064 0.85611,0 1.55656,0.45728 1.55656,1.01617 0,0.55889 1.03305,1.34404 2.29567,1.74479 1.26261,0.40073 3.1013,1.41842 4.08598,2.26153 0.98467,0.8431 2.03547,1.42874 2.33511,1.30142 0.29964,-0.12731 1.66391,0.72673 3.03171,1.89788 1.3678,1.17115 2.59359,1.90662 2.72399,1.63439 0.13039,-0.27224 1.35618,0.46324 2.72398,1.63439 1.3678,1.17115 2.83876,2.11654 3.26879,2.10086 0.43003,-0.0157 1.51734,0.60124 2.41626,1.37092 0.89891,0.76967 1.87955,1.29523 2.17919,1.16791 0.29964,-0.12731 1.52543,0.60817 2.72398,1.63439 1.19856,1.02624 2.66951,1.97163 3.26879,2.10087 0.59928,0.12924 1.96355,0.98328 3.03171,1.89787 1.06816,0.91459 2.0488,1.44016 2.17919,1.16792 0.13039,-0.27223 1.35618,0.46324 2.72398,1.6344 1.3678,1.17115 2.61899,1.8842 2.7804,1.58456 0.16141,-0.29964 2.22936,1.28964 4.59545,3.53174 2.36609,2.24209 4.66971,4.08078 5.11917,4.08598 0.44945,0.005 0.82242,0.62234 0.82882,1.37144 0.007,0.74909 2.21281,3.7489 4.90317,6.66623 2.69036,2.91734 4.89678,5.61409 4.90318,5.99277 0.007,0.37869 2.21281,3.07544 4.90318,5.99277 2.69035,2.91734 4.89678,5.61409 4.90317,5.99277 0.007,0.37869 2.21282,3.07544 4.90318,5.99277 2.69035,2.91734 4.89155,5.62477 4.89155,6.01653 0,0.39174 2.12844,3.03059 4.72988,5.8641 2.60144,2.8335 4.50268,5.15182 4.22497,5.15182 -0.27771,0 0.0692,0.69183 0.77099,1.53738 1.40305,1.69056 -0.0609,3.29336 -1.65186,1.80854 z"
   id="path1514"
   inkscape:connector-curvature="0"
   transform="matrix(0.75000002,0,0,-0.75000002,0,725.67002)" /><path
   style="fill:#e3e3e3;fill-opacity:1;stroke:none;stroke-width:5.44797277;stroke-miterlimit:4;stroke-dasharray:none;stroke-opacity:1"
   d="m 535.72495,794.83278 c -26.06855,-3.74171 -48.31291,-6.99503 -49.43191,-7.22961 -2.04141,-0.42793 3.76146,-7.03645 106.24498,-120.99555 l 28.07824,-31.22231 4.4668,1.13379 c 2.4818,0.62995 4.2645,1.6734 4.01159,2.34805 -0.25037,0.66785 -9.20148,37.62034 -19.89138,82.11666 l -19.43616,80.9024 -3.3224,-0.12515 c -1.82732,-0.0688 -24.65121,-3.18656 -50.71976,-6.92828 z"
   id="path1516"
   inkscape:connector-curvature="0"
   transform="matrix(0.75000002,0,0,-0.75000002,0,725.67002)"
   inkscape:export-xdpi="96"
   inkscape:export-ydpi="96" /><path
   style="fill:#000000;fill-opacity:1;stroke:none;stroke-width:2.72398639;stroke-miterlimit:4;stroke-dasharray:none;stroke-opacity:1"
   d=""
   id="path1518"
   inkscape:connector-curvature="0"
   transform="matrix(0.75000002,0,0,-0.75000002,0,725.67002)" /></g></svg>